<?xml version="1.0" encoding="UTF-8" standalone="no"?>
<!DOCTYPE svg PUBLIC "-//W3C//DTD SVG 1.1//EN"
 "http://www.w3.org/Graphics/SVG/1.1/DTD/svg11.dtd">
<!-- Generated by graphviz version 2.40.1 (20161225.0304)
 -->
<!-- Title: Tree Pages: 1 -->
<svg width="404pt" height="314pt"
 viewBox="0.00 0.00 403.50 314.00" xmlns="http://www.w3.org/2000/svg" xmlns:xlink="http://www.w3.org/1999/xlink">
<g id="graph0" class="graph" transform="scale(1 1) rotate(0) translate(4 310)">
<title>Tree</title>
<polygon fill="#ffffff" stroke="transparent" points="-4,4 -4,-310 399.5,-310 399.5,4 -4,4"/>
<!-- 0 -->
<g id="node1" class="node">
<title>0</title>
<path fill="#a3f3c4" stroke="#000000" d="M236.5,-306C236.5,-306 90.5,-306 90.5,-306 84.5,-306 78.5,-300 78.5,-294 78.5,-294 78.5,-235 78.5,-235 78.5,-229 84.5,-223 90.5,-223 90.5,-223 236.5,-223 236.5,-223 242.5,-223 248.5,-229 248.5,-235 248.5,-235 248.5,-294 248.5,-294 248.5,-300 242.5,-306 236.5,-306"/>
<text text-anchor="middle" x="163.5" y="-290.8" font-family="Helvetica,sans-Serif" font-size="14.00" fill="#000000">critical &lt;= 3.5</text>
<text text-anchor="middle" x="163.5" y="-275.8" font-family="Helvetica,sans-Serif" font-size="14.00" fill="#000000">gini = 0.55</text>
<text text-anchor="middle" x="163.5" y="-260.8" font-family="Helvetica,sans-Serif" font-size="14.00" fill="#000000">samples = 4169</text>
<text text-anchor="middle" x="163.5" y="-245.8" font-family="Helvetica,sans-Serif" font-size="14.00" fill="#000000">value = [1077, 2515, 577]</text>
<text text-anchor="middle" x="163.5" y="-230.8" font-family="Helvetica,sans-Serif" font-size="14.00" fill="#000000">class = 2</text>
</g>
<!-- 1 -->
<g id="node2" class="node">
<title>1</title>
<path fill="#e99659" stroke="#000000" d="M143,-179.5C143,-179.5 12,-179.5 12,-179.5 6,-179.5 0,-173.5 0,-167.5 0,-167.5 0,-123.5 0,-123.5 0,-117.5 6,-111.5 12,-111.5 12,-111.5 143,-111.5 143,-111.5 149,-111.5 155,-117.5 155,-123.5 155,-123.5 155,-167.5 155,-167.5 155,-173.5 149,-179.5 143,-179.5"/>
<text text-anchor="middle" x="77.5" y="-164.3" font-family="Helvetica,sans-Serif" font-size="14.00" fill="#000000">gini = 0.254</text>
<text text-anchor="middle" x="77.5" y="-149.3" font-family="Helvetica,sans-Serif" font-size="14.00" fill="#000000">samples = 1174</text>
<text text-anchor="middle" x="77.5" y="-134.3" font-family="Helvetica,sans-Serif" font-size="14.00" fill="#000000">value = [1004, 137, 33]</text>
<text text-anchor="middle" x="77.5" y="-119.3" font-family="Helvetica,sans-Serif" font-size="14.00" fill="#000000">class = 1</text>
</g>
<!-- 0&#45;&gt;1 -->
<g id="edge1" class="edge">
<title>0&#45;&gt;1</title>
<path fill="none" stroke="#000000" d="M133.4214,-222.8796C125.3157,-211.6636 116.5347,-199.5131 108.3857,-188.2372"/>
<polygon fill="#000000" stroke="#000000" points="110.9932,-185.8698 102.299,-179.8149 105.3197,-189.9701 110.9932,-185.8698"/>
<text text-anchor="middle" x="98.3258" y="-200.7972" font-family="Helvetica,sans-Serif" font-size="14.00" fill="#000000">True</text>
</g>
<!-- 2 -->
<g id="node3" class="node">
<title>2</title>
<path fill="#6beca1" stroke="#000000" d="M316,-187C316,-187 185,-187 185,-187 179,-187 173,-181 173,-175 173,-175 173,-116 173,-116 173,-110 179,-104 185,-104 185,-104 316,-104 316,-104 322,-104 328,-110 328,-116 328,-116 328,-175 328,-175 328,-181 322,-187 316,-187"/>
<text text-anchor="middle" x="250.5" y="-171.8" font-family="Helvetica,sans-Serif" font-size="14.00" fill="#000000">harmful &lt;= 0.5</text>
<text text-anchor="middle" x="250.5" y="-156.8" font-family="Helvetica,sans-Serif" font-size="14.00" fill="#000000">gini = 0.336</text>
<text text-anchor="middle" x="250.5" y="-141.8" font-family="Helvetica,sans-Serif" font-size="14.00" fill="#000000">samples = 2995</text>
<text text-anchor="middle" x="250.5" y="-126.8" font-family="Helvetica,sans-Serif" font-size="14.00" fill="#000000">value = [73, 2378, 544]</text>
<text text-anchor="middle" x="250.5" y="-111.8" font-family="Helvetica,sans-Serif" font-size="14.00" fill="#000000">class = 2</text>
</g>
<!-- 0&#45;&gt;2 -->
<g id="edge2" class="edge">
<title>0&#45;&gt;2</title>
<path fill="none" stroke="#000000" d="M193.9284,-222.8796C200.3811,-214.0534 207.257,-204.6485 213.9113,-195.5466"/>
<polygon fill="#000000" stroke="#000000" points="216.8653,-197.4364 219.9417,-187.2981 211.2144,-193.3051 216.8653,-197.4364"/>
<text text-anchor="middle" x="223.7792" y="-208.3018" font-family="Helvetica,sans-Serif" font-size="14.00" fill="#000000">False</text>
</g>
<!-- 3 -->
<g id="node4" class="node">
<title>3</title>
<path fill="#44e688" stroke="#000000" d="M233,-68C233,-68 110,-68 110,-68 104,-68 98,-62 98,-56 98,-56 98,-12 98,-12 98,-6 104,0 110,0 110,0 233,0 233,0 239,0 245,-6 245,-12 245,-12 245,-56 245,-56 245,-62 239,-68 233,-68"/>
<text text-anchor="middle" x="171.5" y="-52.8" font-family="Helvetica,sans-Serif" font-size="14.00" fill="#000000">gini = 0.103</text>
<text text-anchor="middle" x="171.5" y="-37.8" font-family="Helvetica,sans-Serif" font-size="14.00" fill="#000000">samples = 2472</text>
<text text-anchor="middle" x="171.5" y="-22.8" font-family="Helvetica,sans-Serif" font-size="14.00" fill="#000000">value = [73, 2339, 60]</text>
<text text-anchor="middle" x="171.5" y="-7.8" font-family="Helvetica,sans-Serif" font-size="14.00" fill="#000000">class = 2</text>
</g>
<!-- 2&#45;&gt;3 -->
<g id="edge3" class="edge">
<title>2&#45;&gt;3</title>
<path fill="none" stroke="#000000" d="M221.0833,-103.9815C214.7669,-95.0666 208.0818,-85.6313 201.7349,-76.6734"/>
<polygon fill="#000000" stroke="#000000" points="204.4136,-74.3998 195.7765,-68.2637 198.7019,-78.4466 204.4136,-74.3998"/>
</g>
<!-- 4 -->
<g id="node5" class="node">
<title>4</title>
<path fill="#8b49e7" stroke="#000000" d="M383.5,-68C383.5,-68 275.5,-68 275.5,-68 269.5,-68 263.5,-62 263.5,-56 263.5,-56 263.5,-12 263.5,-12 263.5,-6 269.5,0 275.5,0 275.5,0 383.5,0 383.5,0 389.5,0 395.5,-6 395.5,-12 395.5,-12 395.5,-56 395.5,-56 395.5,-62 389.5,-68 383.5,-68"/>
<text text-anchor="middle" x="329.5" y="-52.8" font-family="Helvetica,sans-Serif" font-size="14.00" fill="#000000">gini = 0.138</text>
<text text-anchor="middle" x="329.5" y="-37.8" font-family="Helvetica,sans-Serif" font-size="14.00" fill="#000000">samples = 523</text>
<text text-anchor="middle" x="329.5" y="-22.8" font-family="Helvetica,sans-Serif" font-size="14.00" fill="#000000">value = [0, 39, 484]</text>
<text text-anchor="middle" x="329.5" y="-7.8" font-family="Helvetica,sans-Serif" font-size="14.00" fill="#000000">class = 3+</text>
</g>
<!-- 2&#45;&gt;4 -->
<g id="edge4" class="edge">
<title>2&#45;&gt;4</title>
<path fill="none" stroke="#000000" d="M279.9167,-103.9815C286.2331,-95.0666 292.9182,-85.6313 299.2651,-76.6734"/>
<polygon fill="#000000" stroke="#000000" points="302.2981,-78.4466 305.2235,-68.2637 296.5864,-74.3998 302.2981,-78.4466"/>
</g>
</g>
</svg>
