<?xml version="1.0" encoding="UTF-8" standalone="no"?>
<!DOCTYPE svg PUBLIC "-//W3C//DTD SVG 1.1//EN"
 "http://www.w3.org/Graphics/SVG/1.1/DTD/svg11.dtd">
<!-- Generated by graphviz version 2.40.1 (20161225.0304)
 -->
<!-- Title: Tree Pages: 1 -->
<svg width="398pt" height="314pt"
 viewBox="0.00 0.00 398.00 314.00" xmlns="http://www.w3.org/2000/svg" xmlns:xlink="http://www.w3.org/1999/xlink">
<g id="graph0" class="graph" transform="scale(1 1) rotate(0) translate(4 310)">
<title>Tree</title>
<polygon fill="#ffffff" stroke="transparent" points="-4,4 -4,-310 394,-310 394,4 -4,4"/>
<!-- 0 -->
<g id="node1" class="node">
<title>0</title>
<path fill="#a3f3c4" stroke="#000000" d="M236.5,-306C236.5,-306 90.5,-306 90.5,-306 84.5,-306 78.5,-300 78.5,-294 78.5,-294 78.5,-235 78.5,-235 78.5,-229 84.5,-223 90.5,-223 90.5,-223 236.5,-223 236.5,-223 242.5,-223 248.5,-229 248.5,-235 248.5,-235 248.5,-294 248.5,-294 248.5,-300 242.5,-306 236.5,-306"/>
<text text-anchor="middle" x="163.5" y="-290.8" font-family="Helvetica,sans-Serif" font-size="14.00" fill="#000000">critical &lt;= 3.5</text>
<text text-anchor="middle" x="163.5" y="-275.8" font-family="Helvetica,sans-Serif" font-size="14.00" fill="#000000">gini = 0.55</text>
<text text-anchor="middle" x="163.5" y="-260.8" font-family="Helvetica,sans-Serif" font-size="14.00" fill="#000000">samples = 4169</text>
<text text-anchor="middle" x="163.5" y="-245.8" font-family="Helvetica,sans-Serif" font-size="14.00" fill="#000000">value = [1077, 2515, 577]</text>
<text text-anchor="middle" x="163.5" y="-230.8" font-family="Helvetica,sans-Serif" font-size="14.00" fill="#000000">class = 2</text>
</g>
<!-- 1 -->
<g id="node2" class="node">
<title>1</title>
<path fill="#e99659" stroke="#000000" d="M143,-179.5C143,-179.5 12,-179.5 12,-179.5 6,-179.5 0,-173.5 0,-167.5 0,-167.5 0,-123.5 0,-123.5 0,-117.5 6,-111.5 12,-111.5 12,-111.5 143,-111.5 143,-111.5 149,-111.5 155,-117.5 155,-123.5 155,-123.5 155,-167.5 155,-167.5 155,-173.5 149,-179.5 143,-179.5"/>
<text text-anchor="middle" x="77.5" y="-164.3" font-family="Helvetica,sans-Serif" font-size="14.00" fill="#000000">gini = 0.254</text>
<text text-anchor="middle" x="77.5" y="-149.3" font-family="Helvetica,sans-Serif" font-size="14.00" fill="#000000">samples = 1174</text>
<text text-anchor="middle" x="77.5" y="-134.3" font-family="Helvetica,sans-Serif" font-size="14.00" fill="#000000">value = [1004, 137, 33]</text>
<text text-anchor="middle" x="77.5" y="-119.3" font-family="Helvetica,sans-Serif" font-size="14.00" fill="#000000">class = 1</text>
</g>
<!-- 0&#45;&gt;1 -->
<g id="edge1" class="edge">
<title>0&#45;&gt;1</title>
<path fill="none" stroke="#000000" d="M133.4214,-222.8796C125.3157,-211.6636 116.5347,-199.5131 108.3857,-188.2372"/>
<polygon fill="#000000" stroke="#000000" points="110.9932,-185.8698 102.299,-179.8149 105.3197,-189.9701 110.9932,-185.8698"/>
<text text-anchor="middle" x="98.3258" y="-200.7972" font-family="Helvetica,sans-Serif" font-size="14.00" fill="#000000">True</text>
</g>
<!-- 2 -->
<g id="node3" class="node">
<title>2</title>
<path fill="#6beca1" stroke="#000000" d="M316,-187C316,-187 185,-187 185,-187 179,-187 173,-181 173,-175 173,-175 173,-116 173,-116 173,-110 179,-104 185,-104 185,-104 316,-104 316,-104 322,-104 328,-110 328,-116 328,-116 328,-175 328,-175 328,-181 322,-187 316,-187"/>
<text text-anchor="middle" x="250.5" y="-171.8" font-family="Helvetica,sans-Serif" font-size="14.00" fill="#000000">v3 &lt;= 0.5</text>
<text text-anchor="middle" x="250.5" y="-156.8" font-family="Helvetica,sans-Serif" font-size="14.00" fill="#000000">gini = 0.336</text>
<text text-anchor="middle" x="250.5" y="-141.8" font-family="Helvetica,sans-Serif" font-size="14.00" fill="#000000">samples = 2995</text>
<text text-anchor="middle" x="250.5" y="-126.8" font-family="Helvetica,sans-Serif" font-size="14.00" fill="#000000">value = [73, 2378, 544]</text>
<text text-anchor="middle" x="250.5" y="-111.8" font-family="Helvetica,sans-Serif" font-size="14.00" fill="#000000">class = 2</text>
</g>
<!-- 0&#45;&gt;2 -->
<g id="edge2" class="edge">
<title>0&#45;&gt;2</title>
<path fill="none" stroke="#000000" d="M193.9284,-222.8796C200.3811,-214.0534 207.257,-204.6485 213.9113,-195.5466"/>
<polygon fill="#000000" stroke="#000000" points="216.8653,-197.4364 219.9417,-187.2981 211.2144,-193.3051 216.8653,-197.4364"/>
<text text-anchor="middle" x="223.7792" y="-208.3018" font-family="Helvetica,sans-Serif" font-size="14.00" fill="#000000">False</text>
</g>
<!-- 3 -->
<g id="node4" class="node">
<title>3</title>
<path fill="#44e688" stroke="#000000" d="M235,-68C235,-68 112,-68 112,-68 106,-68 100,-62 100,-56 100,-56 100,-12 100,-12 100,-6 106,0 112,0 112,0 235,0 235,0 241,0 247,-6 247,-12 247,-12 247,-56 247,-56 247,-62 241,-68 235,-68"/>
<text text-anchor="middle" x="173.5" y="-52.8" font-family="Helvetica,sans-Serif" font-size="14.00" fill="#000000">gini = 0.1</text>
<text text-anchor="middle" x="173.5" y="-37.8" font-family="Helvetica,sans-Serif" font-size="14.00" fill="#000000">samples = 2506</text>
<text text-anchor="middle" x="173.5" y="-22.8" font-family="Helvetica,sans-Serif" font-size="14.00" fill="#000000">value = [73, 2376, 57]</text>
<text text-anchor="middle" x="173.5" y="-7.8" font-family="Helvetica,sans-Serif" font-size="14.00" fill="#000000">class = 2</text>
</g>
<!-- 2&#45;&gt;3 -->
<g id="edge3" class="edge">
<title>2&#45;&gt;3</title>
<path fill="none" stroke="#000000" d="M221.828,-103.9815C215.6715,-95.0666 209.1557,-85.6313 202.9695,-76.6734"/>
<polygon fill="#000000" stroke="#000000" points="205.7245,-74.5034 197.1619,-68.2637 199.9645,-78.4811 205.7245,-74.5034"/>
</g>
<!-- 4 -->
<g id="node5" class="node">
<title>4</title>
<path fill="#823ae5" stroke="#000000" d="M378,-68C378,-68 277,-68 277,-68 271,-68 265,-62 265,-56 265,-56 265,-12 265,-12 265,-6 271,0 277,0 277,0 378,0 378,0 384,0 390,-6 390,-12 390,-12 390,-56 390,-56 390,-62 384,-68 378,-68"/>
<text text-anchor="middle" x="327.5" y="-52.8" font-family="Helvetica,sans-Serif" font-size="14.00" fill="#000000">gini = 0.008</text>
<text text-anchor="middle" x="327.5" y="-37.8" font-family="Helvetica,sans-Serif" font-size="14.00" fill="#000000">samples = 489</text>
<text text-anchor="middle" x="327.5" y="-22.8" font-family="Helvetica,sans-Serif" font-size="14.00" fill="#000000">value = [0, 2, 487]</text>
<text text-anchor="middle" x="327.5" y="-7.8" font-family="Helvetica,sans-Serif" font-size="14.00" fill="#000000">class = 3+</text>
</g>
<!-- 2&#45;&gt;4 -->
<g id="edge4" class="edge">
<title>2&#45;&gt;4</title>
<path fill="none" stroke="#000000" d="M279.172,-103.9815C285.3285,-95.0666 291.8443,-85.6313 298.0305,-76.6734"/>
<polygon fill="#000000" stroke="#000000" points="301.0355,-78.4811 303.8381,-68.2637 295.2755,-74.5034 301.0355,-78.4811"/>
</g>
</g>
</svg>
